<?xml version="1.0" encoding="utf-8" standalone="no"?>
<!DOCTYPE svg PUBLIC "-//W3C//DTD SVG 1.1//EN"
  "http://www.w3.org/Graphics/SVG/1.1/DTD/svg11.dtd">
<svg xmlns:xlink="http://www.w3.org/1999/xlink" width="610.547187pt" height="405.19375pt" viewBox="0 0 610.547187 405.19375" xmlns="http://www.w3.org/2000/svg" version="1.1">
 <metadata>
  <rdf:RDF xmlns:dc="http://purl.org/dc/elements/1.1/" xmlns:cc="http://creativecommons.org/ns#" xmlns:rdf="http://www.w3.org/1999/02/22-rdf-syntax-ns#">
   <cc:Work>
    <dc:type rdf:resource="http://purl.org/dc/dcmitype/StillImage"/>
    <dc:date>2025-11-28T04:00:43.679623</dc:date>
    <dc:format>image/svg+xml</dc:format>
    <dc:creator>
     <cc:Agent>
      <dc:title>Matplotlib v3.10.7, https://matplotlib.org/</dc:title>
     </cc:Agent>
    </dc:creator>
   </cc:Work>
  </rdf:RDF>
 </metadata>
 <defs>
  <style type="text/css">*{stroke-linejoin: round; stroke-linecap: butt}</style>
 </defs>
 <g id="figure_1">
  <g id="patch_1">
   <path d="M 0 405.19375 
L 610.547187 405.19375 
L 610.547187 0 
L 0 0 
z
" style="fill: #ffffff"/>
  </g>
  <g id="axes_1">
   <g id="patch_2">
    <path d="M 45.347188 369.985625 
L 603.347188 369.985625 
L 603.347188 37.345625 
L 45.347188 37.345625 
z
" style="fill: #ffffff"/>
   </g>
   <g id="matplotlib.axis_1">
    <g id="xtick_1">
     <g id="line2d_1">
      <path d="M 97.210145 369.985625 
L 97.210145 37.345625 
" clip-path="url(#pa16ec49f23)" style="fill: none; stroke: #cccccc; stroke-width: 0.8; stroke-linecap: round"/>
     </g>
     <g id="line2d_2"/>
     <g id="text_1">
      <!-- 2020 -->
      <g style="fill: #262626" transform="translate(86.08827 380.7325) scale(0.1 -0.1)">
       <defs>
        <path id="LiberationSans-32" d="M 322 0 
L 322 397 
Q 481 763 711 1042 
Q 941 1322 1194 1548 
Q 1447 1775 1695 1969 
Q 1944 2163 2144 2356 
Q 2344 2550 2467 2762 
Q 2591 2975 2591 3244 
Q 2591 3606 2378 3806 
Q 2166 4006 1788 4006 
Q 1428 4006 1195 3811 
Q 963 3616 922 3263 
L 347 3316 
Q 409 3844 795 4156 
Q 1181 4469 1788 4469 
Q 2453 4469 2811 4155 
Q 3169 3841 3169 3263 
Q 3169 3006 3051 2753 
Q 2934 2500 2703 2247 
Q 2472 1994 1819 1463 
Q 1459 1169 1246 933 
Q 1034 697 941 478 
L 3238 478 
L 3238 0 
L 322 0 
z
" transform="scale(0.015625)"/>
        <path id="LiberationSans-30" d="M 3309 2203 
Q 3309 1100 2920 518 
Q 2531 -63 1772 -63 
Q 1013 -63 631 515 
Q 250 1094 250 2203 
Q 250 3338 620 3903 
Q 991 4469 1791 4469 
Q 2569 4469 2939 3897 
Q 3309 3325 3309 2203 
z
M 2738 2203 
Q 2738 3156 2517 3584 
Q 2297 4013 1791 4013 
Q 1272 4013 1045 3591 
Q 819 3169 819 2203 
Q 819 1266 1048 831 
Q 1278 397 1778 397 
Q 2275 397 2506 840 
Q 2738 1284 2738 2203 
z
" transform="scale(0.015625)"/>
       </defs>
       <use xlink:href="#LiberationSans-32"/>
       <use xlink:href="#LiberationSans-30" transform="translate(55.615234 0)"/>
       <use xlink:href="#LiberationSans-32" transform="translate(111.230469 0)"/>
       <use xlink:href="#LiberationSans-30" transform="translate(166.845703 0)"/>
      </g>
     </g>
    </g>
    <g id="xtick_2">
     <g id="line2d_3">
      <path d="M 172.922493 369.985625 
L 172.922493 37.345625 
" clip-path="url(#pa16ec49f23)" style="fill: none; stroke: #cccccc; stroke-width: 0.8; stroke-linecap: round"/>
     </g>
     <g id="line2d_4"/>
     <g id="text_2">
      <!-- 2021 -->
      <g style="fill: #262626" transform="translate(161.800618 380.7325) scale(0.1 -0.1)">
       <defs>
        <path id="LiberationSans-31" d="M 488 0 
L 488 478 
L 1609 478 
L 1609 3866 
L 616 3156 
L 616 3688 
L 1656 4403 
L 2175 4403 
L 2175 478 
L 3247 478 
L 3247 0 
L 488 0 
z
" transform="scale(0.015625)"/>
       </defs>
       <use xlink:href="#LiberationSans-32"/>
       <use xlink:href="#LiberationSans-30" transform="translate(55.615234 0)"/>
       <use xlink:href="#LiberationSans-32" transform="translate(111.230469 0)"/>
       <use xlink:href="#LiberationSans-31" transform="translate(166.845703 0)"/>
      </g>
     </g>
    </g>
    <g id="xtick_3">
     <g id="line2d_5">
      <path d="M 248.63484 369.985625 
L 248.63484 37.345625 
" clip-path="url(#pa16ec49f23)" style="fill: none; stroke: #cccccc; stroke-width: 0.8; stroke-linecap: round"/>
     </g>
     <g id="line2d_6"/>
     <g id="text_3">
      <!-- 2022 -->
      <g style="fill: #262626" transform="translate(237.512965 380.7325) scale(0.1 -0.1)">
       <use xlink:href="#LiberationSans-32"/>
       <use xlink:href="#LiberationSans-30" transform="translate(55.615234 0)"/>
       <use xlink:href="#LiberationSans-32" transform="translate(111.230469 0)"/>
       <use xlink:href="#LiberationSans-32" transform="translate(166.845703 0)"/>
      </g>
     </g>
    </g>
    <g id="xtick_4">
     <g id="line2d_7">
      <path d="M 324.347188 369.985625 
L 324.347188 37.345625 
" clip-path="url(#pa16ec49f23)" style="fill: none; stroke: #cccccc; stroke-width: 0.8; stroke-linecap: round"/>
     </g>
     <g id="line2d_8"/>
     <g id="text_4">
      <!-- 2023 -->
      <g style="fill: #262626" transform="translate(313.225313 380.7325) scale(0.1 -0.1)">
       <defs>
        <path id="LiberationSans-33" d="M 3278 1216 
Q 3278 606 2890 271 
Q 2503 -63 1784 -63 
Q 1116 -63 717 239 
Q 319 541 244 1131 
L 825 1184 
Q 938 403 1784 403 
Q 2209 403 2451 612 
Q 2694 822 2694 1234 
Q 2694 1594 2417 1795 
Q 2141 1997 1619 1997 
L 1300 1997 
L 1300 2484 
L 1606 2484 
Q 2069 2484 2323 2686 
Q 2578 2888 2578 3244 
Q 2578 3597 2370 3801 
Q 2163 4006 1753 4006 
Q 1381 4006 1151 3815 
Q 922 3625 884 3278 
L 319 3322 
Q 381 3863 767 4166 
Q 1153 4469 1759 4469 
Q 2422 4469 2789 4161 
Q 3156 3853 3156 3303 
Q 3156 2881 2920 2617 
Q 2684 2353 2234 2259 
L 2234 2247 
Q 2728 2194 3003 1916 
Q 3278 1638 3278 1216 
z
" transform="scale(0.015625)"/>
       </defs>
       <use xlink:href="#LiberationSans-32"/>
       <use xlink:href="#LiberationSans-30" transform="translate(55.615234 0)"/>
       <use xlink:href="#LiberationSans-32" transform="translate(111.230469 0)"/>
       <use xlink:href="#LiberationSans-33" transform="translate(166.845703 0)"/>
      </g>
     </g>
    </g>
    <g id="xtick_5">
     <g id="line2d_9">
      <path d="M 400.059535 369.985625 
L 400.059535 37.345625 
" clip-path="url(#pa16ec49f23)" style="fill: none; stroke: #cccccc; stroke-width: 0.8; stroke-linecap: round"/>
     </g>
     <g id="line2d_10"/>
     <g id="text_5">
      <!-- 2024 -->
      <g style="fill: #262626" transform="translate(388.93766 380.7325) scale(0.1 -0.1)">
       <defs>
        <path id="LiberationSans-34" d="M 2753 997 
L 2753 0 
L 2222 0 
L 2222 997 
L 147 997 
L 147 1434 
L 2163 4403 
L 2753 4403 
L 2753 1441 
L 3372 1441 
L 3372 997 
L 2753 997 
z
M 2222 3769 
Q 2216 3750 2134 3603 
Q 2053 3456 2013 3397 
L 884 1734 
L 716 1503 
L 666 1441 
L 2222 1441 
L 2222 3769 
z
" transform="scale(0.015625)"/>
       </defs>
       <use xlink:href="#LiberationSans-32"/>
       <use xlink:href="#LiberationSans-30" transform="translate(55.615234 0)"/>
       <use xlink:href="#LiberationSans-32" transform="translate(111.230469 0)"/>
       <use xlink:href="#LiberationSans-34" transform="translate(166.845703 0)"/>
      </g>
     </g>
    </g>
    <g id="xtick_6">
     <g id="line2d_11">
      <path d="M 475.771882 369.985625 
L 475.771882 37.345625 
" clip-path="url(#pa16ec49f23)" style="fill: none; stroke: #cccccc; stroke-width: 0.8; stroke-linecap: round"/>
     </g>
     <g id="line2d_12"/>
     <g id="text_6">
      <!-- 2025 -->
      <g style="fill: #262626" transform="translate(464.650007 380.7325) scale(0.1 -0.1)">
       <defs>
        <path id="LiberationSans-35" d="M 3291 1434 
Q 3291 738 2877 337 
Q 2463 -63 1728 -63 
Q 1113 -63 734 206 
Q 356 475 256 984 
L 825 1050 
Q 1003 397 1741 397 
Q 2194 397 2450 670 
Q 2706 944 2706 1422 
Q 2706 1838 2448 2094 
Q 2191 2350 1753 2350 
Q 1525 2350 1328 2278 
Q 1131 2206 934 2034 
L 384 2034 
L 531 4403 
L 3034 4403 
L 3034 3925 
L 1044 3925 
L 959 2528 
Q 1325 2809 1869 2809 
Q 2519 2809 2905 2428 
Q 3291 2047 3291 1434 
z
" transform="scale(0.015625)"/>
       </defs>
       <use xlink:href="#LiberationSans-32"/>
       <use xlink:href="#LiberationSans-30" transform="translate(55.615234 0)"/>
       <use xlink:href="#LiberationSans-32" transform="translate(111.230469 0)"/>
       <use xlink:href="#LiberationSans-35" transform="translate(166.845703 0)"/>
      </g>
     </g>
    </g>
    <g id="xtick_7">
     <g id="line2d_13">
      <path d="M 551.48423 369.985625 
L 551.48423 37.345625 
" clip-path="url(#pa16ec49f23)" style="fill: none; stroke: #cccccc; stroke-width: 0.8; stroke-linecap: round"/>
     </g>
     <g id="line2d_14"/>
     <g id="text_7">
      <!-- 2026 -->
      <g style="fill: #262626" transform="translate(540.362355 380.7325) scale(0.1 -0.1)">
       <defs>
        <path id="LiberationSans-36" d="M 3278 1441 
Q 3278 744 2900 340 
Q 2522 -63 1856 -63 
Q 1113 -63 719 490 
Q 325 1044 325 2100 
Q 325 3244 734 3856 
Q 1144 4469 1900 4469 
Q 2897 4469 3156 3572 
L 2619 3475 
Q 2453 4013 1894 4013 
Q 1413 4013 1148 3564 
Q 884 3116 884 2266 
Q 1038 2550 1316 2698 
Q 1594 2847 1953 2847 
Q 2563 2847 2920 2465 
Q 3278 2084 3278 1441 
z
M 2706 1416 
Q 2706 1894 2472 2153 
Q 2238 2413 1819 2413 
Q 1425 2413 1183 2183 
Q 941 1953 941 1550 
Q 941 1041 1192 716 
Q 1444 391 1838 391 
Q 2244 391 2475 664 
Q 2706 938 2706 1416 
z
" transform="scale(0.015625)"/>
       </defs>
       <use xlink:href="#LiberationSans-32"/>
       <use xlink:href="#LiberationSans-30" transform="translate(55.615234 0)"/>
       <use xlink:href="#LiberationSans-32" transform="translate(111.230469 0)"/>
       <use xlink:href="#LiberationSans-36" transform="translate(166.845703 0)"/>
      </g>
     </g>
    </g>
    <g id="text_8">
     <!-- Year -->
     <g style="fill: #262626" transform="translate(311.666562 395.50375) scale(0.12 -0.12)">
      <defs>
       <path id="LiberationSans-Bold-59" d="M 2597 1806 
L 2597 0 
L 1678 0 
L 1678 1806 
L 109 4403 
L 1075 4403 
L 2131 2541 
L 3200 4403 
L 4166 4403 
L 2597 1806 
z
" transform="scale(0.015625)"/>
       <path id="LiberationSans-Bold-65" d="M 1831 -63 
Q 1069 -63 659 389 
Q 250 841 250 1706 
Q 250 2544 665 2994 
Q 1081 3444 1844 3444 
Q 2572 3444 2956 2961 
Q 3341 2478 3341 1547 
L 3341 1522 
L 1172 1522 
Q 1172 1028 1355 776 
Q 1538 525 1875 525 
Q 2341 525 2463 928 
L 3291 856 
Q 2931 -63 1831 -63 
z
M 1831 2891 
Q 1522 2891 1355 2675 
Q 1188 2459 1178 2072 
L 2491 2072 
Q 2466 2481 2294 2686 
Q 2122 2891 1831 2891 
z
" transform="scale(0.015625)"/>
       <path id="LiberationSans-Bold-61" d="M 1228 -63 
Q 738 -63 463 204 
Q 188 472 188 956 
Q 188 1481 530 1756 
Q 872 2031 1522 2038 
L 2250 2050 
L 2250 2222 
Q 2250 2553 2134 2714 
Q 2019 2875 1756 2875 
Q 1513 2875 1398 2764 
Q 1284 2653 1256 2397 
L 341 2441 
Q 425 2934 792 3189 
Q 1159 3444 1794 3444 
Q 2434 3444 2781 3128 
Q 3128 2813 3128 2231 
L 3128 1000 
Q 3128 716 3192 608 
Q 3256 500 3406 500 
Q 3506 500 3600 519 
L 3600 44 
Q 3522 25 3459 9 
Q 3397 -6 3334 -15 
Q 3272 -25 3201 -31 
Q 3131 -38 3038 -38 
Q 2706 -38 2548 125 
Q 2391 288 2359 603 
L 2341 603 
Q 1972 -63 1228 -63 
z
M 2250 1566 
L 1800 1559 
Q 1494 1547 1366 1492 
Q 1238 1438 1170 1325 
Q 1103 1213 1103 1025 
Q 1103 784 1214 667 
Q 1325 550 1509 550 
Q 1716 550 1886 662 
Q 2056 775 2153 973 
Q 2250 1172 2250 1394 
L 2250 1566 
z
" transform="scale(0.015625)"/>
       <path id="LiberationSans-Bold-72" d="M 447 0 
L 447 2588 
Q 447 2866 439 3052 
Q 431 3238 422 3381 
L 1259 3381 
Q 1269 3325 1284 3039 
Q 1300 2753 1300 2659 
L 1313 2659 
Q 1441 3016 1541 3161 
Q 1641 3306 1778 3376 
Q 1916 3447 2122 3447 
Q 2291 3447 2394 3400 
L 2394 2666 
Q 2181 2713 2019 2713 
Q 1691 2713 1508 2447 
Q 1325 2181 1325 1659 
L 1325 0 
L 447 0 
z
" transform="scale(0.015625)"/>
      </defs>
      <use xlink:href="#LiberationSans-Bold-59"/>
      <use xlink:href="#LiberationSans-Bold-65" transform="translate(61.199219 0)"/>
      <use xlink:href="#LiberationSans-Bold-61" transform="translate(116.814453 0)"/>
      <use xlink:href="#LiberationSans-Bold-72" transform="translate(172.429688 0)"/>
     </g>
    </g>
   </g>
   <g id="matplotlib.axis_2">
    <g id="ytick_1">
     <g id="line2d_15">
      <path d="M 45.347188 369.985625 
L 603.347188 369.985625 
" clip-path="url(#pa16ec49f23)" style="fill: none; stroke-dasharray: 2.96,1.28; stroke-dashoffset: 0; stroke: #cccccc; stroke-opacity: 0.7; stroke-width: 0.8"/>
     </g>
     <g id="line2d_16"/>
     <g id="text_9">
      <!-- 0.0 -->
      <g style="fill: #262626" transform="translate(27.947188 373.609063) scale(0.1 -0.1)">
       <defs>
        <path id="LiberationSans-2e" d="M 584 0 
L 584 684 
L 1194 684 
L 1194 0 
L 584 0 
z
" transform="scale(0.015625)"/>
       </defs>
       <use xlink:href="#LiberationSans-30"/>
       <use xlink:href="#LiberationSans-2e" transform="translate(55.615234 0)"/>
       <use xlink:href="#LiberationSans-30" transform="translate(83.398438 0)"/>
      </g>
     </g>
    </g>
    <g id="ytick_2">
     <g id="line2d_17">
      <path d="M 45.347188 332.271339 
L 603.347188 332.271339 
" clip-path="url(#pa16ec49f23)" style="fill: none; stroke-dasharray: 2.96,1.28; stroke-dashoffset: 0; stroke: #cccccc; stroke-opacity: 0.7; stroke-width: 0.8"/>
     </g>
     <g id="line2d_18"/>
     <g id="text_10">
      <!-- 2.5 -->
      <g style="fill: #262626" transform="translate(27.947188 335.894777) scale(0.1 -0.1)">
       <use xlink:href="#LiberationSans-32"/>
       <use xlink:href="#LiberationSans-2e" transform="translate(55.615234 0)"/>
       <use xlink:href="#LiberationSans-35" transform="translate(83.398438 0)"/>
      </g>
     </g>
    </g>
    <g id="ytick_3">
     <g id="line2d_19">
      <path d="M 45.347188 294.557054 
L 603.347188 294.557054 
" clip-path="url(#pa16ec49f23)" style="fill: none; stroke-dasharray: 2.96,1.28; stroke-dashoffset: 0; stroke: #cccccc; stroke-opacity: 0.7; stroke-width: 0.8"/>
     </g>
     <g id="line2d_20"/>
     <g id="text_11">
      <!-- 5.0 -->
      <g style="fill: #262626" transform="translate(27.947188 298.180491) scale(0.1 -0.1)">
       <use xlink:href="#LiberationSans-35"/>
       <use xlink:href="#LiberationSans-2e" transform="translate(55.615234 0)"/>
       <use xlink:href="#LiberationSans-30" transform="translate(83.398438 0)"/>
      </g>
     </g>
    </g>
    <g id="ytick_4">
     <g id="line2d_21">
      <path d="M 45.347188 256.842768 
L 603.347188 256.842768 
" clip-path="url(#pa16ec49f23)" style="fill: none; stroke-dasharray: 2.96,1.28; stroke-dashoffset: 0; stroke: #cccccc; stroke-opacity: 0.7; stroke-width: 0.8"/>
     </g>
     <g id="line2d_22"/>
     <g id="text_12">
      <!-- 7.5 -->
      <g style="fill: #262626" transform="translate(27.947188 260.466205) scale(0.1 -0.1)">
       <defs>
        <path id="LiberationSans-37" d="M 3238 3947 
Q 2563 2916 2284 2331 
Q 2006 1747 1867 1178 
Q 1728 609 1728 0 
L 1141 0 
Q 1141 844 1498 1776 
Q 1856 2709 2694 3925 
L 328 3925 
L 328 4403 
L 3238 4403 
L 3238 3947 
z
" transform="scale(0.015625)"/>
       </defs>
       <use xlink:href="#LiberationSans-37"/>
       <use xlink:href="#LiberationSans-2e" transform="translate(55.615234 0)"/>
       <use xlink:href="#LiberationSans-35" transform="translate(83.398438 0)"/>
      </g>
     </g>
    </g>
    <g id="ytick_5">
     <g id="line2d_23">
      <path d="M 45.347188 219.128482 
L 603.347188 219.128482 
" clip-path="url(#pa16ec49f23)" style="fill: none; stroke-dasharray: 2.96,1.28; stroke-dashoffset: 0; stroke: #cccccc; stroke-opacity: 0.7; stroke-width: 0.8"/>
     </g>
     <g id="line2d_24"/>
     <g id="text_13">
      <!-- 10.0 -->
      <g style="fill: #262626" transform="translate(22.38625 222.75192) scale(0.1 -0.1)">
       <use xlink:href="#LiberationSans-31"/>
       <use xlink:href="#LiberationSans-30" transform="translate(55.615234 0)"/>
       <use xlink:href="#LiberationSans-2e" transform="translate(111.230469 0)"/>
       <use xlink:href="#LiberationSans-30" transform="translate(139.013672 0)"/>
      </g>
     </g>
    </g>
    <g id="ytick_6">
     <g id="line2d_25">
      <path d="M 45.347188 181.414196 
L 603.347188 181.414196 
" clip-path="url(#pa16ec49f23)" style="fill: none; stroke-dasharray: 2.96,1.28; stroke-dashoffset: 0; stroke: #cccccc; stroke-opacity: 0.7; stroke-width: 0.8"/>
     </g>
     <g id="line2d_26"/>
     <g id="text_14">
      <!-- 12.5 -->
      <g style="fill: #262626" transform="translate(22.38625 185.037634) scale(0.1 -0.1)">
       <use xlink:href="#LiberationSans-31"/>
       <use xlink:href="#LiberationSans-32" transform="translate(55.615234 0)"/>
       <use xlink:href="#LiberationSans-2e" transform="translate(111.230469 0)"/>
       <use xlink:href="#LiberationSans-35" transform="translate(139.013672 0)"/>
      </g>
     </g>
    </g>
    <g id="ytick_7">
     <g id="line2d_27">
      <path d="M 45.347188 143.699911 
L 603.347188 143.699911 
" clip-path="url(#pa16ec49f23)" style="fill: none; stroke-dasharray: 2.96,1.28; stroke-dashoffset: 0; stroke: #cccccc; stroke-opacity: 0.7; stroke-width: 0.8"/>
     </g>
     <g id="line2d_28"/>
     <g id="text_15">
      <!-- 15.0 -->
      <g style="fill: #262626" transform="translate(22.38625 147.323348) scale(0.1 -0.1)">
       <use xlink:href="#LiberationSans-31"/>
       <use xlink:href="#LiberationSans-35" transform="translate(55.615234 0)"/>
       <use xlink:href="#LiberationSans-2e" transform="translate(111.230469 0)"/>
       <use xlink:href="#LiberationSans-30" transform="translate(139.013672 0)"/>
      </g>
     </g>
    </g>
    <g id="ytick_8">
     <g id="line2d_29">
      <path d="M 45.347188 105.985625 
L 603.347188 105.985625 
" clip-path="url(#pa16ec49f23)" style="fill: none; stroke-dasharray: 2.96,1.28; stroke-dashoffset: 0; stroke: #cccccc; stroke-opacity: 0.7; stroke-width: 0.8"/>
     </g>
     <g id="line2d_30"/>
     <g id="text_16">
      <!-- 17.5 -->
      <g style="fill: #262626" transform="translate(22.38625 109.609063) scale(0.1 -0.1)">
       <use xlink:href="#LiberationSans-31"/>
       <use xlink:href="#LiberationSans-37" transform="translate(55.615234 0)"/>
       <use xlink:href="#LiberationSans-2e" transform="translate(111.230469 0)"/>
       <use xlink:href="#LiberationSans-35" transform="translate(139.013672 0)"/>
      </g>
     </g>
    </g>
    <g id="ytick_9">
     <g id="line2d_31">
      <path d="M 45.347188 68.271339 
L 603.347188 68.271339 
" clip-path="url(#pa16ec49f23)" style="fill: none; stroke-dasharray: 2.96,1.28; stroke-dashoffset: 0; stroke: #cccccc; stroke-opacity: 0.7; stroke-width: 0.8"/>
     </g>
     <g id="line2d_32"/>
     <g id="text_17">
      <!-- 20.0 -->
      <g style="fill: #262626" transform="translate(22.38625 71.894777) scale(0.1 -0.1)">
       <use xlink:href="#LiberationSans-32"/>
       <use xlink:href="#LiberationSans-30" transform="translate(55.615234 0)"/>
       <use xlink:href="#LiberationSans-2e" transform="translate(111.230469 0)"/>
       <use xlink:href="#LiberationSans-30" transform="translate(139.013672 0)"/>
      </g>
     </g>
    </g>
    <g id="text_18">
     <!-- Number of Papers -->
     <g style="fill: #262626" transform="translate(15.89625 255.343437) rotate(-90) scale(0.12 -0.12)">
      <defs>
       <path id="LiberationSans-Bold-4e" d="M 3109 0 
L 1191 3391 
Q 1247 2897 1247 2597 
L 1247 0 
L 428 0 
L 428 4403 
L 1481 4403 
L 3428 984 
Q 3372 1456 3372 1844 
L 3372 4403 
L 4191 4403 
L 4191 0 
L 3109 0 
z
" transform="scale(0.015625)"/>
       <path id="LiberationSans-Bold-75" d="M 1275 3381 
L 1275 1484 
Q 1275 594 1875 594 
Q 2194 594 2389 867 
Q 2584 1141 2584 1569 
L 2584 3381 
L 3463 3381 
L 3463 756 
Q 3463 325 3488 0 
L 2650 0 
Q 2613 450 2613 672 
L 2597 672 
Q 2422 288 2151 112 
Q 1881 -63 1509 -63 
Q 972 -63 684 267 
Q 397 597 397 1234 
L 397 3381 
L 1275 3381 
z
" transform="scale(0.015625)"/>
       <path id="LiberationSans-Bold-6d" d="M 2438 0 
L 2438 1897 
Q 2438 2788 1925 2788 
Q 1659 2788 1492 2516 
Q 1325 2244 1325 1813 
L 1325 0 
L 447 0 
L 447 2625 
Q 447 2897 439 3070 
Q 431 3244 422 3381 
L 1259 3381 
Q 1269 3322 1284 3064 
Q 1300 2806 1300 2709 
L 1313 2709 
Q 1475 3097 1717 3272 
Q 1959 3447 2297 3447 
Q 3072 3447 3238 2709 
L 3256 2709 
Q 3428 3103 3668 3275 
Q 3909 3447 4281 3447 
Q 4775 3447 5034 3111 
Q 5294 2775 5294 2147 
L 5294 0 
L 4422 0 
L 4422 1897 
Q 4422 2788 3909 2788 
Q 3653 2788 3489 2539 
Q 3325 2291 3309 1853 
L 3309 0 
L 2438 0 
z
" transform="scale(0.015625)"/>
       <path id="LiberationSans-Bold-62" d="M 3647 1703 
Q 3647 866 3311 401 
Q 2975 -63 2350 -63 
Q 1991 -63 1728 93 
Q 1466 250 1325 544 
L 1319 544 
Q 1319 434 1305 243 
Q 1291 53 1275 0 
L 422 0 
Q 447 291 447 772 
L 447 4638 
L 1325 4638 
L 1325 3344 
L 1313 2794 
L 1325 2794 
Q 1622 3444 2406 3444 
Q 3006 3444 3326 2989 
Q 3647 2534 3647 1703 
z
M 2731 1703 
Q 2731 2278 2562 2556 
Q 2394 2834 2041 2834 
Q 1684 2834 1498 2536 
Q 1313 2238 1313 1675 
Q 1313 1138 1495 838 
Q 1678 538 2034 538 
Q 2731 538 2731 1703 
z
" transform="scale(0.015625)"/>
       <path id="LiberationSans-Bold-20" transform="scale(0.015625)"/>
       <path id="LiberationSans-Bold-6f" d="M 3659 1694 
Q 3659 872 3203 404 
Q 2747 -63 1941 -63 
Q 1150 -63 700 406 
Q 250 875 250 1694 
Q 250 2509 700 2976 
Q 1150 3444 1959 3444 
Q 2788 3444 3223 2992 
Q 3659 2541 3659 1694 
z
M 2741 1694 
Q 2741 2297 2544 2569 
Q 2347 2841 1972 2841 
Q 1172 2841 1172 1694 
Q 1172 1128 1367 833 
Q 1563 538 1931 538 
Q 2741 538 2741 1694 
z
" transform="scale(0.015625)"/>
       <path id="LiberationSans-Bold-66" d="M 1478 2788 
L 1478 0 
L 603 0 
L 603 2788 
L 109 2788 
L 109 3381 
L 603 3381 
L 603 3734 
Q 603 4194 847 4416 
Q 1091 4638 1588 4638 
Q 1834 4638 2144 4588 
L 2144 4022 
Q 2016 4050 1888 4050 
Q 1663 4050 1570 3961 
Q 1478 3872 1478 3647 
L 1478 3381 
L 2144 3381 
L 2144 2788 
L 1478 2788 
z
" transform="scale(0.015625)"/>
       <path id="LiberationSans-Bold-50" d="M 4050 3009 
Q 4050 2584 3856 2250 
Q 3663 1916 3302 1733 
Q 2941 1550 2444 1550 
L 1350 1550 
L 1350 0 
L 428 0 
L 428 4403 
L 2406 4403 
Q 3197 4403 3623 4039 
Q 4050 3675 4050 3009 
z
M 3122 2994 
Q 3122 3688 2303 3688 
L 1350 3688 
L 1350 2259 
L 2328 2259 
Q 2709 2259 2915 2448 
Q 3122 2638 3122 2994 
z
" transform="scale(0.015625)"/>
       <path id="LiberationSans-Bold-70" d="M 3647 1706 
Q 3647 859 3308 398 
Q 2969 -63 2350 -63 
Q 1994 -63 1730 92 
Q 1466 247 1325 538 
L 1306 538 
Q 1325 444 1325 -31 
L 1325 -1328 
L 447 -1328 
L 447 2603 
Q 447 3081 422 3381 
L 1275 3381 
Q 1291 3325 1302 3159 
Q 1313 2994 1313 2831 
L 1325 2831 
Q 1622 3453 2406 3453 
Q 2997 3453 3322 2998 
Q 3647 2544 3647 1706 
z
M 2731 1706 
Q 2731 2844 2034 2844 
Q 1684 2844 1498 2537 
Q 1313 2231 1313 1681 
Q 1313 1134 1498 836 
Q 1684 538 2028 538 
Q 2731 538 2731 1706 
z
" transform="scale(0.015625)"/>
       <path id="LiberationSans-Bold-73" d="M 3297 988 
Q 3297 497 2895 217 
Q 2494 -63 1784 -63 
Q 1088 -63 717 157 
Q 347 378 225 844 
L 997 959 
Q 1063 719 1223 619 
Q 1384 519 1784 519 
Q 2153 519 2322 612 
Q 2491 706 2491 906 
Q 2491 1069 2355 1164 
Q 2219 1259 1894 1325 
Q 1150 1472 890 1598 
Q 631 1725 495 1926 
Q 359 2128 359 2422 
Q 359 2906 732 3176 
Q 1106 3447 1791 3447 
Q 2394 3447 2761 3212 
Q 3128 2978 3219 2534 
L 2441 2453 
Q 2403 2659 2256 2761 
Q 2109 2863 1791 2863 
Q 1478 2863 1322 2783 
Q 1166 2703 1166 2516 
Q 1166 2369 1286 2283 
Q 1406 2197 1691 2141 
Q 2088 2059 2395 1973 
Q 2703 1888 2889 1769 
Q 3075 1650 3186 1464 
Q 3297 1278 3297 988 
z
" transform="scale(0.015625)"/>
      </defs>
      <use xlink:href="#LiberationSans-Bold-4e"/>
      <use xlink:href="#LiberationSans-Bold-75" transform="translate(72.216797 0)"/>
      <use xlink:href="#LiberationSans-Bold-6d" transform="translate(133.300781 0)"/>
      <use xlink:href="#LiberationSans-Bold-62" transform="translate(222.216797 0)"/>
      <use xlink:href="#LiberationSans-Bold-65" transform="translate(283.300781 0)"/>
      <use xlink:href="#LiberationSans-Bold-72" transform="translate(338.916016 0)"/>
      <use xlink:href="#LiberationSans-Bold-20" transform="translate(377.832031 0)"/>
      <use xlink:href="#LiberationSans-Bold-6f" transform="translate(405.615234 0)"/>
      <use xlink:href="#LiberationSans-Bold-66" transform="translate(466.699219 0)"/>
      <use xlink:href="#LiberationSans-Bold-20" transform="translate(500 0)"/>
      <use xlink:href="#LiberationSans-Bold-50" transform="translate(527.783203 0)"/>
      <use xlink:href="#LiberationSans-Bold-61" transform="translate(594.482422 0)"/>
      <use xlink:href="#LiberationSans-Bold-70" transform="translate(650.097656 0)"/>
      <use xlink:href="#LiberationSans-Bold-65" transform="translate(711.181641 0)"/>
      <use xlink:href="#LiberationSans-Bold-72" transform="translate(766.796875 0)"/>
      <use xlink:href="#LiberationSans-Bold-73" transform="translate(805.712891 0)"/>
     </g>
    </g>
   </g>
   <g id="patch_3">
    <path d="M 70.710824 369.985625 
L 97.210145 369.985625 
L 97.210145 354.899911 
L 70.710824 354.899911 
z
" clip-path="url(#pa16ec49f23)" style="fill: #4a90e2; opacity: 0.8"/>
   </g>
   <g id="patch_4">
    <path d="M 146.423171 369.985625 
L 172.922493 369.985625 
L 172.922493 354.899911 
L 146.423171 354.899911 
z
" clip-path="url(#pa16ec49f23)" style="fill: #4a90e2; opacity: 0.8"/>
   </g>
   <g id="patch_5">
    <path d="M 222.135519 369.985625 
L 248.63484 369.985625 
L 248.63484 324.728482 
L 222.135519 324.728482 
z
" clip-path="url(#pa16ec49f23)" style="fill: #4a90e2; opacity: 0.8"/>
   </g>
   <g id="patch_6">
    <path d="M 297.847866 369.985625 
L 324.347188 369.985625 
L 324.347188 264.385625 
L 297.847866 264.385625 
z
" clip-path="url(#pa16ec49f23)" style="fill: #4a90e2; opacity: 0.8"/>
   </g>
   <g id="patch_7">
    <path d="M 373.560213 369.985625 
L 400.059535 369.985625 
L 400.059535 294.557054 
L 373.560213 294.557054 
z
" clip-path="url(#pa16ec49f23)" style="fill: #4a90e2; opacity: 0.8"/>
   </g>
   <g id="patch_8">
    <path d="M 449.272561 369.985625 
L 475.771882 369.985625 
L 475.771882 53.185625 
L 449.272561 53.185625 
z
" clip-path="url(#pa16ec49f23)" style="fill: #4a90e2; opacity: 0.8"/>
   </g>
   <g id="patch_9">
    <path d="M 524.984908 369.985625 
L 551.48423 369.985625 
L 551.48423 339.814196 
L 524.984908 339.814196 
z
" clip-path="url(#pa16ec49f23)" style="fill: #4a90e2; opacity: 0.8"/>
   </g>
   <g id="patch_10">
    <path d="M 97.210145 369.985625 
L 123.709467 369.985625 
L 123.709467 354.899911 
L 97.210145 354.899911 
z
" clip-path="url(#pa16ec49f23)" style="fill: #e74c3c; opacity: 0.9"/>
   </g>
   <g id="patch_11">
    <path d="M 172.922493 369.985625 
L 199.421814 369.985625 
L 199.421814 354.899911 
L 172.922493 354.899911 
z
" clip-path="url(#pa16ec49f23)" style="fill: #e74c3c; opacity: 0.9"/>
   </g>
   <g id="patch_12">
    <path d="M 248.63484 369.985625 
L 275.134162 369.985625 
L 275.134162 354.899911 
L 248.63484 354.899911 
z
" clip-path="url(#pa16ec49f23)" style="fill: #e74c3c; opacity: 0.9"/>
   </g>
   <g id="patch_13">
    <path d="M 324.347188 369.985625 
L 350.846509 369.985625 
L 350.846509 354.899911 
L 324.347188 354.899911 
z
" clip-path="url(#pa16ec49f23)" style="fill: #e74c3c; opacity: 0.9"/>
   </g>
   <g id="patch_14">
    <path d="M 400.059535 369.985625 
L 426.558856 369.985625 
L 426.558856 339.814196 
L 400.059535 339.814196 
z
" clip-path="url(#pa16ec49f23)" style="fill: #e74c3c; opacity: 0.9"/>
   </g>
   <g id="patch_15">
    <path d="M 475.771882 369.985625 
L 502.271204 369.985625 
L 502.271204 249.299911 
L 475.771882 249.299911 
z
" clip-path="url(#pa16ec49f23)" style="fill: #e74c3c; opacity: 0.9"/>
   </g>
   <g id="patch_16">
    <path d="M 551.48423 369.985625 
L 577.983551 369.985625 
L 577.983551 339.814196 
L 551.48423 339.814196 
z
" clip-path="url(#pa16ec49f23)" style="fill: #e74c3c; opacity: 0.9"/>
   </g>
   <g id="patch_17">
    <path d="M 45.347188 369.985625 
L 45.347188 37.345625 
" style="fill: none; stroke: #cccccc; stroke-linejoin: miter; stroke-linecap: square"/>
   </g>
   <g id="patch_18">
    <path d="M 45.347188 369.985625 
L 603.347188 369.985625 
" style="fill: none; stroke: #cccccc; stroke-linejoin: miter; stroke-linecap: square"/>
   </g>
   <g id="text_19">
    <!-- 1 -->
    <g style="fill: #262626" transform="translate(81.458063 350.032411) scale(0.09 -0.09)">
     <use xlink:href="#LiberationSans-31"/>
    </g>
   </g>
   <g id="text_20">
    <!-- 1 -->
    <g style="fill: #262626" transform="translate(157.17041 350.032411) scale(0.09 -0.09)">
     <use xlink:href="#LiberationSans-31"/>
    </g>
   </g>
   <g id="text_21">
    <!-- 3 -->
    <g style="fill: #262626" transform="translate(232.882757 319.860982) scale(0.09 -0.09)">
     <use xlink:href="#LiberationSans-33"/>
    </g>
   </g>
   <g id="text_22">
    <!-- 7 -->
    <g style="fill: #262626" transform="translate(308.595105 259.518125) scale(0.09 -0.09)">
     <use xlink:href="#LiberationSans-37"/>
    </g>
   </g>
   <g id="text_23">
    <!-- 5 -->
    <g style="fill: #262626" transform="translate(384.307452 289.689554) scale(0.09 -0.09)">
     <use xlink:href="#LiberationSans-35"/>
    </g>
   </g>
   <g id="text_24">
    <!-- 21 -->
    <g style="fill: #262626" transform="translate(457.517378 48.318125) scale(0.09 -0.09)">
     <use xlink:href="#LiberationSans-32"/>
     <use xlink:href="#LiberationSans-31" transform="translate(55.615234 0)"/>
    </g>
   </g>
   <g id="text_25">
    <!-- 2 -->
    <g style="fill: #262626" transform="translate(535.732147 334.946696) scale(0.09 -0.09)">
     <use xlink:href="#LiberationSans-32"/>
    </g>
   </g>
   <g id="text_26">
    <!-- 1 -->
    <g style="fill: #262626" transform="translate(107.957384 350.032411) scale(0.09 -0.09)">
     <use xlink:href="#LiberationSans-31"/>
    </g>
   </g>
   <g id="text_27">
    <!-- 1 -->
    <g style="fill: #262626" transform="translate(183.669732 350.032411) scale(0.09 -0.09)">
     <use xlink:href="#LiberationSans-31"/>
    </g>
   </g>
   <g id="text_28">
    <!-- 1 -->
    <g style="fill: #262626" transform="translate(259.382079 350.032411) scale(0.09 -0.09)">
     <use xlink:href="#LiberationSans-31"/>
    </g>
   </g>
   <g id="text_29">
    <!-- 1 -->
    <g style="fill: #262626" transform="translate(335.094426 350.032411) scale(0.09 -0.09)">
     <use xlink:href="#LiberationSans-31"/>
    </g>
   </g>
   <g id="text_30">
    <!-- 2 -->
    <g style="fill: #262626" transform="translate(410.806774 334.946696) scale(0.09 -0.09)">
     <use xlink:href="#LiberationSans-32"/>
    </g>
   </g>
   <g id="text_31">
    <!-- 8 -->
    <g style="fill: #262626" transform="translate(486.519121 244.432411) scale(0.09 -0.09)">
     <defs>
      <path id="LiberationSans-38" d="M 3281 1228 
Q 3281 619 2893 278 
Q 2506 -63 1781 -63 
Q 1075 -63 676 271 
Q 278 606 278 1222 
Q 278 1653 525 1947 
Q 772 2241 1156 2303 
L 1156 2316 
Q 797 2400 589 2681 
Q 381 2963 381 3341 
Q 381 3844 757 4156 
Q 1134 4469 1769 4469 
Q 2419 4469 2795 4162 
Q 3172 3856 3172 3334 
Q 3172 2956 2962 2675 
Q 2753 2394 2391 2322 
L 2391 2309 
Q 2813 2241 3047 1952 
Q 3281 1663 3281 1228 
z
M 2588 3303 
Q 2588 4050 1769 4050 
Q 1372 4050 1164 3862 
Q 956 3675 956 3303 
Q 956 2925 1170 2726 
Q 1384 2528 1775 2528 
Q 2172 2528 2380 2711 
Q 2588 2894 2588 3303 
z
M 2697 1281 
Q 2697 1691 2453 1898 
Q 2209 2106 1769 2106 
Q 1341 2106 1100 1882 
Q 859 1659 859 1269 
Q 859 359 1788 359 
Q 2247 359 2472 579 
Q 2697 800 2697 1281 
z
" transform="scale(0.015625)"/>
     </defs>
     <use xlink:href="#LiberationSans-38"/>
    </g>
   </g>
   <g id="text_32">
    <!-- 2 -->
    <g style="fill: #262626" transform="translate(562.231468 334.946696) scale(0.09 -0.09)">
     <use xlink:href="#LiberationSans-32"/>
    </g>
   </g>
   <g id="text_33">
    <!-- Multi-Modal Object Re-ID Publication Trends in This Repository -->
    <g style="fill: #262626" transform="translate(113.957812 17.345625) scale(0.14 -0.14)">
     <defs>
      <path id="LiberationSans-Bold-4d" d="M 4084 0 
L 4084 2669 
Q 4084 2759 4086 2850 
Q 4088 2941 4116 3628 
Q 3894 2788 3788 2456 
L 2994 0 
L 2338 0 
L 1544 2456 
L 1209 3628 
Q 1247 2903 1247 2669 
L 1247 0 
L 428 0 
L 428 4403 
L 1663 4403 
L 2450 1941 
L 2519 1703 
L 2669 1113 
L 2866 1819 
L 3675 4403 
L 4903 4403 
L 4903 0 
L 4084 0 
z
" transform="scale(0.015625)"/>
      <path id="LiberationSans-Bold-6c" d="M 447 0 
L 447 4638 
L 1325 4638 
L 1325 0 
L 447 0 
z
" transform="scale(0.015625)"/>
      <path id="LiberationSans-Bold-74" d="M 1313 -56 
Q 925 -56 715 155 
Q 506 366 506 794 
L 506 2788 
L 78 2788 
L 78 3381 
L 550 3381 
L 825 4175 
L 1375 4175 
L 1375 3381 
L 2016 3381 
L 2016 2788 
L 1375 2788 
L 1375 1031 
Q 1375 784 1469 667 
Q 1563 550 1759 550 
Q 1863 550 2053 594 
L 2053 50 
Q 1728 -56 1313 -56 
z
" transform="scale(0.015625)"/>
      <path id="LiberationSans-Bold-69" d="M 447 3991 
L 447 4638 
L 1325 4638 
L 1325 3991 
L 447 3991 
z
M 447 0 
L 447 3381 
L 1325 3381 
L 1325 0 
L 447 0 
z
" transform="scale(0.015625)"/>
      <path id="LiberationSans-Bold-2d" d="M 250 1278 
L 250 2041 
L 1875 2041 
L 1875 1278 
L 250 1278 
z
" transform="scale(0.015625)"/>
      <path id="LiberationSans-Bold-64" d="M 2638 0 
Q 2625 47 2608 236 
Q 2591 425 2591 550 
L 2578 550 
Q 2294 -63 1497 -63 
Q 906 -63 584 398 
Q 263 859 263 1688 
Q 263 2528 602 2986 
Q 941 3444 1563 3444 
Q 1922 3444 2183 3294 
Q 2444 3144 2584 2847 
L 2591 2847 
L 2584 3403 
L 2584 4638 
L 3463 4638 
L 3463 738 
Q 3463 425 3488 0 
L 2638 0 
z
M 2597 1709 
Q 2597 2256 2414 2551 
Q 2231 2847 1875 2847 
Q 1522 2847 1350 2561 
Q 1178 2275 1178 1688 
Q 1178 538 1869 538 
Q 2216 538 2406 842 
Q 2597 1147 2597 1709 
z
" transform="scale(0.015625)"/>
      <path id="LiberationSans-Bold-4f" d="M 4709 2222 
Q 4709 1534 4437 1012 
Q 4166 491 3659 214 
Q 3153 -63 2478 -63 
Q 1441 -63 852 548 
Q 263 1159 263 2222 
Q 263 3281 850 3875 
Q 1438 4469 2484 4469 
Q 3531 4469 4120 3869 
Q 4709 3269 4709 2222 
z
M 3769 2222 
Q 3769 2934 3431 3339 
Q 3094 3744 2484 3744 
Q 1866 3744 1528 3342 
Q 1191 2941 1191 2222 
Q 1191 1497 1536 1080 
Q 1881 663 2478 663 
Q 3097 663 3433 1069 
Q 3769 1475 3769 2222 
z
" transform="scale(0.015625)"/>
      <path id="LiberationSans-Bold-6a" d="M 450 3991 
L 450 4638 
L 1328 4638 
L 1328 3991 
L 450 3991 
z
M 431 -1328 
Q 119 -1328 -100 -1300 
L -100 -681 
L 59 -694 
Q 284 -694 367 -595 
Q 450 -497 450 -188 
L 450 3381 
L 1328 3381 
L 1328 -400 
Q 1328 -847 1101 -1087 
Q 875 -1328 431 -1328 
z
" transform="scale(0.015625)"/>
      <path id="LiberationSans-Bold-63" d="M 1856 -63 
Q 1088 -63 669 395 
Q 250 853 250 1672 
Q 250 2509 672 2976 
Q 1094 3444 1869 3444 
Q 2466 3444 2856 3144 
Q 3247 2844 3347 2316 
L 2463 2272 
Q 2425 2531 2275 2686 
Q 2125 2841 1850 2841 
Q 1172 2841 1172 1706 
Q 1172 538 1863 538 
Q 2113 538 2281 695 
Q 2450 853 2491 1166 
L 3372 1125 
Q 3325 778 3123 506 
Q 2922 234 2594 85 
Q 2266 -63 1856 -63 
z
" transform="scale(0.015625)"/>
      <path id="LiberationSans-Bold-52" d="M 3453 0 
L 2431 1672 
L 1350 1672 
L 1350 0 
L 428 0 
L 428 4403 
L 2628 4403 
Q 3416 4403 3844 4064 
Q 4272 3725 4272 3091 
Q 4272 2628 4009 2292 
Q 3747 1956 3300 1850 
L 4491 0 
L 3453 0 
z
M 3344 3053 
Q 3344 3688 2531 3688 
L 1350 3688 
L 1350 2388 
L 2556 2388 
Q 2944 2388 3144 2563 
Q 3344 2738 3344 3053 
z
" transform="scale(0.015625)"/>
      <path id="LiberationSans-Bold-49" d="M 428 0 
L 428 4403 
L 1350 4403 
L 1350 0 
L 428 0 
z
" transform="scale(0.015625)"/>
      <path id="LiberationSans-Bold-44" d="M 4353 2234 
Q 4353 1553 4086 1045 
Q 3819 538 3330 269 
Q 2841 0 2209 0 
L 428 0 
L 428 4403 
L 2022 4403 
Q 3134 4403 3743 3842 
Q 4353 3281 4353 2234 
z
M 3425 2234 
Q 3425 2944 3056 3317 
Q 2688 3691 2003 3691 
L 1350 3691 
L 1350 713 
L 2131 713 
Q 2725 713 3075 1122 
Q 3425 1531 3425 2234 
z
" transform="scale(0.015625)"/>
      <path id="LiberationSans-Bold-6e" d="M 2638 0 
L 2638 1897 
Q 2638 2788 2034 2788 
Q 1716 2788 1520 2514 
Q 1325 2241 1325 1813 
L 1325 0 
L 447 0 
L 447 2625 
Q 447 2897 439 3070 
Q 431 3244 422 3381 
L 1259 3381 
Q 1269 3322 1284 3064 
Q 1300 2806 1300 2709 
L 1313 2709 
Q 1491 3097 1759 3272 
Q 2028 3447 2400 3447 
Q 2938 3447 3225 3115 
Q 3513 2784 3513 2147 
L 3513 0 
L 2638 0 
z
" transform="scale(0.015625)"/>
      <path id="LiberationSans-Bold-54" d="M 2416 3691 
L 2416 0 
L 1494 0 
L 1494 3691 
L 72 3691 
L 72 4403 
L 3841 4403 
L 3841 3691 
L 2416 3691 
z
" transform="scale(0.015625)"/>
      <path id="LiberationSans-Bold-68" d="M 1313 2706 
Q 1491 3094 1759 3269 
Q 2028 3444 2400 3444 
Q 2938 3444 3225 3112 
Q 3513 2781 3513 2144 
L 3513 0 
L 2638 0 
L 2638 1894 
Q 2638 2784 2034 2784 
Q 1716 2784 1520 2511 
Q 1325 2238 1325 1809 
L 1325 0 
L 447 0 
L 447 4638 
L 1325 4638 
L 1325 3372 
Q 1325 3031 1300 2706 
L 1313 2706 
z
" transform="scale(0.015625)"/>
      <path id="LiberationSans-Bold-79" d="M 884 -1328 
Q 569 -1328 331 -1288 
L 331 -663 
Q 497 -688 634 -688 
Q 822 -688 945 -628 
Q 1069 -569 1167 -431 
Q 1266 -294 1388 34 
L 50 3381 
L 978 3381 
L 1509 1797 
Q 1634 1456 1825 753 
L 1903 1050 
L 2106 1784 
L 2606 3381 
L 3525 3381 
L 2188 -178 
Q 1919 -828 1630 -1078 
Q 1341 -1328 884 -1328 
z
" transform="scale(0.015625)"/>
     </defs>
     <use xlink:href="#LiberationSans-Bold-4d"/>
     <use xlink:href="#LiberationSans-Bold-75" transform="translate(83.300781 0)"/>
     <use xlink:href="#LiberationSans-Bold-6c" transform="translate(144.384766 0)"/>
     <use xlink:href="#LiberationSans-Bold-74" transform="translate(172.167969 0)"/>
     <use xlink:href="#LiberationSans-Bold-69" transform="translate(205.46875 0)"/>
     <use xlink:href="#LiberationSans-Bold-2d" transform="translate(233.251953 0)"/>
     <use xlink:href="#LiberationSans-Bold-4d" transform="translate(266.552734 0)"/>
     <use xlink:href="#LiberationSans-Bold-6f" transform="translate(349.853516 0)"/>
     <use xlink:href="#LiberationSans-Bold-64" transform="translate(410.9375 0)"/>
     <use xlink:href="#LiberationSans-Bold-61" transform="translate(472.021484 0)"/>
     <use xlink:href="#LiberationSans-Bold-6c" transform="translate(527.636719 0)"/>
     <use xlink:href="#LiberationSans-Bold-20" transform="translate(555.419922 0)"/>
     <use xlink:href="#LiberationSans-Bold-4f" transform="translate(583.203125 0)"/>
     <use xlink:href="#LiberationSans-Bold-62" transform="translate(660.986328 0)"/>
     <use xlink:href="#LiberationSans-Bold-6a" transform="translate(722.070312 0)"/>
     <use xlink:href="#LiberationSans-Bold-65" transform="translate(749.853516 0)"/>
     <use xlink:href="#LiberationSans-Bold-63" transform="translate(805.46875 0)"/>
     <use xlink:href="#LiberationSans-Bold-74" transform="translate(861.083984 0)"/>
     <use xlink:href="#LiberationSans-Bold-20" transform="translate(894.384766 0)"/>
     <use xlink:href="#LiberationSans-Bold-52" transform="translate(922.167969 0)"/>
     <use xlink:href="#LiberationSans-Bold-65" transform="translate(994.384766 0)"/>
     <use xlink:href="#LiberationSans-Bold-2d" transform="translate(1050 0)"/>
     <use xlink:href="#LiberationSans-Bold-49" transform="translate(1083.300781 0)"/>
     <use xlink:href="#LiberationSans-Bold-44" transform="translate(1111.083984 0)"/>
     <use xlink:href="#LiberationSans-Bold-20" transform="translate(1183.300781 0)"/>
     <use xlink:href="#LiberationSans-Bold-50" transform="translate(1211.083984 0)"/>
     <use xlink:href="#LiberationSans-Bold-75" transform="translate(1277.783203 0)"/>
     <use xlink:href="#LiberationSans-Bold-62" transform="translate(1338.867188 0)"/>
     <use xlink:href="#LiberationSans-Bold-6c" transform="translate(1399.951172 0)"/>
     <use xlink:href="#LiberationSans-Bold-69" transform="translate(1427.734375 0)"/>
     <use xlink:href="#LiberationSans-Bold-63" transform="translate(1455.517578 0)"/>
     <use xlink:href="#LiberationSans-Bold-61" transform="translate(1511.132812 0)"/>
     <use xlink:href="#LiberationSans-Bold-74" transform="translate(1566.748047 0)"/>
     <use xlink:href="#LiberationSans-Bold-69" transform="translate(1600.048828 0)"/>
     <use xlink:href="#LiberationSans-Bold-6f" transform="translate(1627.832031 0)"/>
     <use xlink:href="#LiberationSans-Bold-6e" transform="translate(1688.916016 0)"/>
     <use xlink:href="#LiberationSans-Bold-20" transform="translate(1750 0)"/>
     <use xlink:href="#LiberationSans-Bold-54" transform="translate(1777.783203 0)"/>
     <use xlink:href="#LiberationSans-Bold-72" transform="translate(1833.367188 0)"/>
     <use xlink:href="#LiberationSans-Bold-65" transform="translate(1872.283203 0)"/>
     <use xlink:href="#LiberationSans-Bold-6e" transform="translate(1927.898438 0)"/>
     <use xlink:href="#LiberationSans-Bold-64" transform="translate(1988.982422 0)"/>
     <use xlink:href="#LiberationSans-Bold-73" transform="translate(2050.066406 0)"/>
     <use xlink:href="#LiberationSans-Bold-20" transform="translate(2105.681641 0)"/>
     <use xlink:href="#LiberationSans-Bold-69" transform="translate(2133.464844 0)"/>
     <use xlink:href="#LiberationSans-Bold-6e" transform="translate(2161.248047 0)"/>
     <use xlink:href="#LiberationSans-Bold-20" transform="translate(2222.332031 0)"/>
     <use xlink:href="#LiberationSans-Bold-54" transform="translate(2250.115234 0)"/>
     <use xlink:href="#LiberationSans-Bold-68" transform="translate(2311.199219 0)"/>
     <use xlink:href="#LiberationSans-Bold-69" transform="translate(2372.283203 0)"/>
     <use xlink:href="#LiberationSans-Bold-73" transform="translate(2400.066406 0)"/>
     <use xlink:href="#LiberationSans-Bold-20" transform="translate(2455.681641 0)"/>
     <use xlink:href="#LiberationSans-Bold-52" transform="translate(2483.464844 0)"/>
     <use xlink:href="#LiberationSans-Bold-65" transform="translate(2555.681641 0)"/>
     <use xlink:href="#LiberationSans-Bold-70" transform="translate(2611.296875 0)"/>
     <use xlink:href="#LiberationSans-Bold-6f" transform="translate(2672.380859 0)"/>
     <use xlink:href="#LiberationSans-Bold-73" transform="translate(2733.464844 0)"/>
     <use xlink:href="#LiberationSans-Bold-69" transform="translate(2789.080078 0)"/>
     <use xlink:href="#LiberationSans-Bold-74" transform="translate(2816.863281 0)"/>
     <use xlink:href="#LiberationSans-Bold-6f" transform="translate(2850.164062 0)"/>
     <use xlink:href="#LiberationSans-Bold-72" transform="translate(2911.248047 0)"/>
     <use xlink:href="#LiberationSans-Bold-79" transform="translate(2950.164062 0)"/>
    </g>
   </g>
   <g id="legend_1">
    <g id="patch_19">
     <path d="M 55.247188 55.217188 
L 77.247187 55.217188 
L 77.247187 47.517188 
L 55.247188 47.517188 
z
" style="fill: #4a90e2; opacity: 0.8"/>
    </g>
    <g id="text_34">
     <!-- Total Publications -->
     <g style="fill: #262626" transform="translate(86.047188 55.217188) scale(0.11 -0.11)">
      <defs>
       <path id="LiberationSans-54" d="M 2250 3916 
L 2250 0 
L 1656 0 
L 1656 3916 
L 144 3916 
L 144 4403 
L 3763 4403 
L 3763 3916 
L 2250 3916 
z
" transform="scale(0.015625)"/>
       <path id="LiberationSans-6f" d="M 3291 1694 
Q 3291 806 2900 371 
Q 2509 -63 1766 -63 
Q 1025 -63 647 389 
Q 269 841 269 1694 
Q 269 3444 1784 3444 
Q 2559 3444 2925 3017 
Q 3291 2591 3291 1694 
z
M 2700 1694 
Q 2700 2394 2492 2711 
Q 2284 3028 1794 3028 
Q 1300 3028 1079 2704 
Q 859 2381 859 1694 
Q 859 1025 1076 689 
Q 1294 353 1759 353 
Q 2266 353 2483 678 
Q 2700 1003 2700 1694 
z
" transform="scale(0.015625)"/>
       <path id="LiberationSans-74" d="M 1731 25 
Q 1453 -50 1163 -50 
Q 488 -50 488 716 
L 488 2972 
L 97 2972 
L 97 3381 
L 509 3381 
L 675 4138 
L 1050 4138 
L 1050 3381 
L 1675 3381 
L 1675 2972 
L 1050 2972 
L 1050 838 
Q 1050 594 1129 495 
Q 1209 397 1406 397 
Q 1519 397 1731 441 
L 1731 25 
z
" transform="scale(0.015625)"/>
       <path id="LiberationSans-61" d="M 1294 -63 
Q 784 -63 528 206 
Q 272 475 272 944 
Q 272 1469 617 1750 
Q 963 2031 1731 2050 
L 2491 2063 
L 2491 2247 
Q 2491 2659 2316 2837 
Q 2141 3016 1766 3016 
Q 1388 3016 1216 2887 
Q 1044 2759 1009 2478 
L 422 2531 
Q 566 3444 1778 3444 
Q 2416 3444 2737 3151 
Q 3059 2859 3059 2306 
L 3059 850 
Q 3059 600 3125 473 
Q 3191 347 3375 347 
Q 3456 347 3559 369 
L 3559 19 
Q 3347 -31 3125 -31 
Q 2813 -31 2670 133 
Q 2528 297 2509 647 
L 2491 647 
Q 2275 259 1989 98 
Q 1703 -63 1294 -63 
z
M 1422 359 
Q 1731 359 1972 500 
Q 2213 641 2352 886 
Q 2491 1131 2491 1391 
L 2491 1669 
L 1875 1656 
Q 1478 1650 1273 1575 
Q 1069 1500 959 1344 
Q 850 1188 850 934 
Q 850 659 998 509 
Q 1147 359 1422 359 
z
" transform="scale(0.015625)"/>
       <path id="LiberationSans-6c" d="M 431 0 
L 431 4638 
L 994 4638 
L 994 0 
L 431 0 
z
" transform="scale(0.015625)"/>
       <path id="LiberationSans-20" transform="scale(0.015625)"/>
       <path id="LiberationSans-50" d="M 3931 3078 
Q 3931 2453 3523 2084 
Q 3116 1716 2416 1716 
L 1122 1716 
L 1122 0 
L 525 0 
L 525 4403 
L 2378 4403 
Q 3119 4403 3525 4056 
Q 3931 3709 3931 3078 
z
M 3331 3072 
Q 3331 3925 2306 3925 
L 1122 3925 
L 1122 2188 
L 2331 2188 
Q 3331 2188 3331 3072 
z
" transform="scale(0.015625)"/>
       <path id="LiberationSans-75" d="M 981 3381 
L 981 1238 
Q 981 903 1047 718 
Q 1113 534 1256 453 
Q 1400 372 1678 372 
Q 2084 372 2318 650 
Q 2553 928 2553 1422 
L 2553 3381 
L 3116 3381 
L 3116 722 
Q 3116 131 3134 0 
L 2603 0 
Q 2600 16 2597 84 
Q 2594 153 2589 242 
Q 2584 331 2578 578 
L 2569 578 
Q 2375 228 2120 82 
Q 1866 -63 1488 -63 
Q 931 -63 673 214 
Q 416 491 416 1128 
L 416 3381 
L 981 3381 
z
" transform="scale(0.015625)"/>
       <path id="LiberationSans-62" d="M 3291 1706 
Q 3291 -63 2047 -63 
Q 1663 -63 1408 76 
Q 1153 216 994 525 
L 988 525 
Q 988 428 975 229 
Q 963 31 956 0 
L 413 0 
Q 431 169 431 697 
L 431 4638 
L 994 4638 
L 994 3316 
Q 994 3113 981 2838 
L 994 2838 
Q 1150 3163 1408 3303 
Q 1666 3444 2047 3444 
Q 2688 3444 2989 3012 
Q 3291 2581 3291 1706 
z
M 2700 1688 
Q 2700 2397 2512 2703 
Q 2325 3009 1903 3009 
Q 1428 3009 1211 2684 
Q 994 2359 994 1653 
Q 994 988 1206 670 
Q 1419 353 1897 353 
Q 2322 353 2511 667 
Q 2700 981 2700 1688 
z
" transform="scale(0.015625)"/>
       <path id="LiberationSans-69" d="M 428 4100 
L 428 4638 
L 991 4638 
L 991 4100 
L 428 4100 
z
M 428 0 
L 428 3381 
L 991 3381 
L 991 0 
L 428 0 
z
" transform="scale(0.015625)"/>
       <path id="LiberationSans-63" d="M 859 1706 
Q 859 1031 1071 706 
Q 1284 381 1713 381 
Q 2013 381 2214 543 
Q 2416 706 2463 1044 
L 3031 1006 
Q 2966 519 2616 228 
Q 2266 -63 1728 -63 
Q 1019 -63 645 385 
Q 272 834 272 1694 
Q 272 2547 647 2995 
Q 1022 3444 1722 3444 
Q 2241 3444 2583 3175 
Q 2925 2906 3013 2434 
L 2434 2391 
Q 2391 2672 2212 2837 
Q 2034 3003 1706 3003 
Q 1259 3003 1059 2706 
Q 859 2409 859 1706 
z
" transform="scale(0.015625)"/>
       <path id="LiberationSans-6e" d="M 2578 0 
L 2578 2144 
Q 2578 2478 2512 2662 
Q 2447 2847 2303 2928 
Q 2159 3009 1881 3009 
Q 1475 3009 1240 2731 
Q 1006 2453 1006 1959 
L 1006 0 
L 444 0 
L 444 2659 
Q 444 3250 425 3381 
L 956 3381 
Q 959 3366 962 3297 
Q 966 3228 970 3139 
Q 975 3050 981 2803 
L 991 2803 
Q 1184 3153 1439 3298 
Q 1694 3444 2072 3444 
Q 2628 3444 2886 3167 
Q 3144 2891 3144 2253 
L 3144 0 
L 2578 0 
z
" transform="scale(0.015625)"/>
       <path id="LiberationSans-73" d="M 2969 934 
Q 2969 456 2608 196 
Q 2247 -63 1597 -63 
Q 966 -63 623 145 
Q 281 353 178 794 
L 675 891 
Q 747 619 972 492 
Q 1197 366 1597 366 
Q 2025 366 2223 497 
Q 2422 628 2422 891 
Q 2422 1091 2284 1216 
Q 2147 1341 1841 1422 
L 1438 1528 
Q 953 1653 748 1773 
Q 544 1894 428 2066 
Q 313 2238 313 2488 
Q 313 2950 642 3192 
Q 972 3434 1603 3434 
Q 2163 3434 2492 3237 
Q 2822 3041 2909 2606 
L 2403 2544 
Q 2356 2769 2151 2889 
Q 1947 3009 1603 3009 
Q 1222 3009 1040 2893 
Q 859 2778 859 2544 
Q 859 2400 934 2306 
Q 1009 2213 1156 2147 
Q 1303 2081 1775 1966 
Q 2222 1853 2419 1758 
Q 2616 1663 2730 1547 
Q 2844 1431 2906 1279 
Q 2969 1128 2969 934 
z
" transform="scale(0.015625)"/>
      </defs>
      <use xlink:href="#LiberationSans-54"/>
      <use xlink:href="#LiberationSans-6f" transform="translate(49.958984 0)"/>
      <use xlink:href="#LiberationSans-74" transform="translate(105.574219 0)"/>
      <use xlink:href="#LiberationSans-61" transform="translate(133.357422 0)"/>
      <use xlink:href="#LiberationSans-6c" transform="translate(188.972656 0)"/>
      <use xlink:href="#LiberationSans-20" transform="translate(211.189453 0)"/>
      <use xlink:href="#LiberationSans-50" transform="translate(238.972656 0)"/>
      <use xlink:href="#LiberationSans-75" transform="translate(305.671875 0)"/>
      <use xlink:href="#LiberationSans-62" transform="translate(361.287109 0)"/>
      <use xlink:href="#LiberationSans-6c" transform="translate(416.902344 0)"/>
      <use xlink:href="#LiberationSans-69" transform="translate(439.119141 0)"/>
      <use xlink:href="#LiberationSans-63" transform="translate(461.335938 0)"/>
      <use xlink:href="#LiberationSans-61" transform="translate(511.335938 0)"/>
      <use xlink:href="#LiberationSans-74" transform="translate(566.951172 0)"/>
      <use xlink:href="#LiberationSans-69" transform="translate(594.734375 0)"/>
      <use xlink:href="#LiberationSans-6f" transform="translate(616.951172 0)"/>
      <use xlink:href="#LiberationSans-6e" transform="translate(672.566406 0)"/>
      <use xlink:href="#LiberationSans-73" transform="translate(728.181641 0)"/>
     </g>
    </g>
    <g id="patch_20">
     <path d="M 55.247188 70.97125 
L 77.247187 70.97125 
L 77.247187 63.27125 
L 55.247188 63.27125 
z
" style="fill: #e74c3c; opacity: 0.9"/>
    </g>
    <g id="text_35">
     <!-- CCF-A Venues (Estimated) -->
     <g style="fill: #262626" transform="translate(86.047188 70.97125) scale(0.11 -0.11)">
      <defs>
       <path id="LiberationSans-43" d="M 2475 3981 
Q 1744 3981 1337 3511 
Q 931 3041 931 2222 
Q 931 1413 1354 920 
Q 1778 428 2500 428 
Q 3425 428 3891 1344 
L 4378 1100 
Q 4106 531 3614 234 
Q 3122 -63 2472 -63 
Q 1806 -63 1320 214 
Q 834 491 579 1005 
Q 325 1519 325 2222 
Q 325 3275 894 3872 
Q 1463 4469 2469 4469 
Q 3172 4469 3644 4194 
Q 4116 3919 4338 3378 
L 3772 3191 
Q 3619 3575 3280 3778 
Q 2941 3981 2475 3981 
z
" transform="scale(0.015625)"/>
       <path id="LiberationSans-46" d="M 1122 3916 
L 1122 2278 
L 3578 2278 
L 3578 1784 
L 1122 1784 
L 1122 0 
L 525 0 
L 525 4403 
L 3653 4403 
L 3653 3916 
L 1122 3916 
z
" transform="scale(0.015625)"/>
       <path id="LiberationSans-2d" d="M 284 1450 
L 284 1950 
L 1847 1950 
L 1847 1450 
L 284 1450 
z
" transform="scale(0.015625)"/>
       <path id="LiberationSans-41" d="M 3647 0 
L 3144 1288 
L 1138 1288 
L 631 0 
L 13 0 
L 1809 4403 
L 2488 4403 
L 4256 0 
L 3647 0 
z
M 2141 3953 
L 2113 3866 
Q 2034 3606 1881 3200 
L 1319 1753 
L 2966 1753 
L 2400 3206 
Q 2313 3422 2225 3694 
L 2141 3953 
z
" transform="scale(0.015625)"/>
       <path id="LiberationSans-56" d="M 2444 0 
L 1825 0 
L 28 4403 
L 656 4403 
L 1875 1303 
L 2138 525 
L 2400 1303 
L 3613 4403 
L 4241 4403 
L 2444 0 
z
" transform="scale(0.015625)"/>
       <path id="LiberationSans-65" d="M 863 1572 
Q 863 991 1103 675 
Q 1344 359 1806 359 
Q 2172 359 2392 506 
Q 2613 653 2691 878 
L 3184 738 
Q 2881 -63 1806 -63 
Q 1056 -63 664 384 
Q 272 831 272 1713 
Q 272 2550 664 2997 
Q 1056 3444 1784 3444 
Q 3275 3444 3275 1647 
L 3275 1572 
L 863 1572 
z
M 2694 2003 
Q 2647 2538 2422 2783 
Q 2197 3028 1775 3028 
Q 1366 3028 1127 2754 
Q 888 2481 869 2003 
L 2694 2003 
z
" transform="scale(0.015625)"/>
       <path id="LiberationSans-28" d="M 397 1663 
Q 397 2566 680 3284 
Q 963 4003 1550 4638 
L 2094 4638 
Q 1509 3988 1236 3256 
Q 963 2525 963 1656 
Q 963 791 1233 62 
Q 1503 -666 2094 -1325 
L 1550 -1325 
Q 959 -688 678 32 
Q 397 753 397 1650 
L 397 1663 
z
" transform="scale(0.015625)"/>
       <path id="LiberationSans-45" d="M 525 0 
L 525 4403 
L 3866 4403 
L 3866 3916 
L 1122 3916 
L 1122 2503 
L 3678 2503 
L 3678 2022 
L 1122 2022 
L 1122 488 
L 3994 488 
L 3994 0 
L 525 0 
z
" transform="scale(0.015625)"/>
       <path id="LiberationSans-6d" d="M 2400 0 
L 2400 2144 
Q 2400 2634 2265 2821 
Q 2131 3009 1781 3009 
Q 1422 3009 1212 2734 
Q 1003 2459 1003 1959 
L 1003 0 
L 444 0 
L 444 2659 
Q 444 3250 425 3381 
L 956 3381 
Q 959 3366 962 3297 
Q 966 3228 970 3139 
Q 975 3050 981 2803 
L 991 2803 
Q 1172 3163 1406 3303 
Q 1641 3444 1978 3444 
Q 2363 3444 2586 3291 
Q 2809 3138 2897 2803 
L 2906 2803 
Q 3081 3144 3329 3294 
Q 3578 3444 3931 3444 
Q 4444 3444 4676 3166 
Q 4909 2888 4909 2253 
L 4909 0 
L 4353 0 
L 4353 2144 
Q 4353 2634 4218 2821 
Q 4084 3009 3734 3009 
Q 3366 3009 3161 2736 
Q 2956 2463 2956 1959 
L 2956 0 
L 2400 0 
z
" transform="scale(0.015625)"/>
       <path id="LiberationSans-64" d="M 2566 544 
Q 2409 219 2151 78 
Q 1894 -63 1513 -63 
Q 872 -63 570 368 
Q 269 800 269 1675 
Q 269 3444 1513 3444 
Q 1897 3444 2153 3303 
Q 2409 3163 2566 2856 
L 2572 2856 
L 2566 3234 
L 2566 4638 
L 3128 4638 
L 3128 697 
Q 3128 169 3147 0 
L 2609 0 
Q 2600 50 2589 231 
Q 2578 413 2578 544 
L 2566 544 
z
M 859 1694 
Q 859 984 1046 678 
Q 1234 372 1656 372 
Q 2134 372 2350 703 
Q 2566 1034 2566 1731 
Q 2566 2403 2350 2715 
Q 2134 3028 1663 3028 
Q 1238 3028 1048 2714 
Q 859 2400 859 1694 
z
" transform="scale(0.015625)"/>
       <path id="LiberationSans-29" d="M 1734 1650 
Q 1734 747 1451 28 
Q 1169 -691 581 -1325 
L 38 -1325 
Q 625 -669 897 57 
Q 1169 784 1169 1656 
Q 1169 2528 895 3256 
Q 622 3984 38 4638 
L 581 4638 
Q 1172 4000 1453 3279 
Q 1734 2559 1734 1663 
L 1734 1650 
z
" transform="scale(0.015625)"/>
      </defs>
      <use xlink:href="#LiberationSans-43"/>
      <use xlink:href="#LiberationSans-43" transform="translate(72.216797 0)"/>
      <use xlink:href="#LiberationSans-46" transform="translate(144.433594 0)"/>
      <use xlink:href="#LiberationSans-2d" transform="translate(205.517578 0)"/>
      <use xlink:href="#LiberationSans-41" transform="translate(238.818359 0)"/>
      <use xlink:href="#LiberationSans-20" transform="translate(300.017578 0)"/>
      <use xlink:href="#LiberationSans-56" transform="translate(327.800781 0)"/>
      <use xlink:href="#LiberationSans-65" transform="translate(389 0)"/>
      <use xlink:href="#LiberationSans-6e" transform="translate(444.615234 0)"/>
      <use xlink:href="#LiberationSans-75" transform="translate(500.230469 0)"/>
      <use xlink:href="#LiberationSans-65" transform="translate(555.845703 0)"/>
      <use xlink:href="#LiberationSans-73" transform="translate(611.460938 0)"/>
      <use xlink:href="#LiberationSans-20" transform="translate(661.460938 0)"/>
      <use xlink:href="#LiberationSans-28" transform="translate(689.244141 0)"/>
      <use xlink:href="#LiberationSans-45" transform="translate(722.544922 0)"/>
      <use xlink:href="#LiberationSans-73" transform="translate(789.244141 0)"/>
      <use xlink:href="#LiberationSans-74" transform="translate(839.244141 0)"/>
      <use xlink:href="#LiberationSans-69" transform="translate(867.027344 0)"/>
      <use xlink:href="#LiberationSans-6d" transform="translate(889.244141 0)"/>
      <use xlink:href="#LiberationSans-61" transform="translate(972.544922 0)"/>
      <use xlink:href="#LiberationSans-74" transform="translate(1028.160156 0)"/>
      <use xlink:href="#LiberationSans-65" transform="translate(1055.943359 0)"/>
      <use xlink:href="#LiberationSans-64" transform="translate(1111.558594 0)"/>
      <use xlink:href="#LiberationSans-29" transform="translate(1167.173828 0)"/>
     </g>
    </g>
   </g>
  </g>
 </g>
 <defs>
  <clipPath id="pa16ec49f23">
   <rect x="45.347188" y="37.345625" width="558" height="332.64"/>
  </clipPath>
 </defs>
</svg>
